<mxfile host="app.diagrams.net" modified="2021-01-26T01:30:09.956Z" agent="5.0 (Windows NT 10.0; Win64; x64) AppleWebKit/537.36 (KHTML, like Gecko) Chrome/87.0.4259.3 Safari/537.36" etag="llKim0nhQMDJMBi1Vi-d" version="14.2.6" type="github">
  <diagram name="Page-1" id="12e1b939-464a-85fe-373e-61e167be1490">
    <mxGraphModel dx="1483" dy="794" grid="1" gridSize="10" guides="1" tooltips="1" connect="1" arrows="1" fold="1" page="1" pageScale="1.5" pageWidth="1169" pageHeight="826" background="#ffffff" math="0" shadow="0">
      <root>
        <mxCell id="0" />
        <mxCell id="1" parent="0" />
        <mxCell id="ARIzsu3oWci_cmAsu49R-16" value="" style="endArrow=none;dashed=1;html=1;strokeWidth=2;" edge="1" parent="1">
          <mxGeometry width="50" height="50" relative="1" as="geometry">
            <mxPoint x="520" y="890" as="sourcePoint" />
            <mxPoint x="520" y="320" as="targetPoint" />
          </mxGeometry>
        </mxCell>
        <mxCell id="ARIzsu3oWci_cmAsu49R-1" value="&lt;font style=&quot;font-size: 14px&quot;&gt;&lt;b&gt;创建系统&lt;/b&gt;&lt;/font&gt;" style="rounded=0;whiteSpace=wrap;html=1;" vertex="1" parent="1">
          <mxGeometry x="80" y="480" width="80" height="40" as="geometry" />
        </mxCell>
        <mxCell id="ARIzsu3oWci_cmAsu49R-2" value="&lt;font style=&quot;font-size: 14px&quot;&gt;&lt;b&gt;创建应用&lt;/b&gt;&lt;/font&gt;" style="rounded=0;whiteSpace=wrap;html=1;" vertex="1" parent="1">
          <mxGeometry x="200" y="480" width="70" height="40" as="geometry" />
        </mxCell>
        <mxCell id="ARIzsu3oWci_cmAsu49R-3" value="&lt;span style=&quot;font-size: 14px&quot;&gt;&lt;b&gt;代码托管&lt;/b&gt;&lt;/span&gt;" style="rounded=0;whiteSpace=wrap;html=1;" vertex="1" parent="1">
          <mxGeometry x="720" y="480" width="67" height="40" as="geometry" />
        </mxCell>
        <mxCell id="ARIzsu3oWci_cmAsu49R-4" value="&lt;font style=&quot;font-size: 14px&quot;&gt;&lt;b&gt;敏捷中心&lt;/b&gt;&lt;/font&gt;" style="rounded=1;whiteSpace=wrap;html=1;" vertex="1" parent="1">
          <mxGeometry x="220" y="360" width="120" height="60" as="geometry" />
        </mxCell>
        <mxCell id="ARIzsu3oWci_cmAsu49R-5" value="&lt;font style=&quot;font-size: 14px&quot;&gt;&lt;b&gt;项目&lt;/b&gt;&lt;/font&gt;" style="rounded=1;whiteSpace=wrap;html=1;" vertex="1" parent="1">
          <mxGeometry x="120" y="440" width="120" height="30" as="geometry" />
        </mxCell>
        <mxCell id="ARIzsu3oWci_cmAsu49R-6" value="&lt;font style=&quot;font-size: 14px&quot;&gt;&lt;b&gt;持续集成&lt;/b&gt;&lt;/font&gt;" style="rounded=1;whiteSpace=wrap;html=1;" vertex="1" parent="1">
          <mxGeometry x="817" y="360" width="120" height="60" as="geometry" />
        </mxCell>
        <mxCell id="ARIzsu3oWci_cmAsu49R-7" value="&lt;span style=&quot;font-size: 14px&quot;&gt;&lt;b&gt;构建&lt;/b&gt;&lt;/span&gt;" style="rounded=0;whiteSpace=wrap;html=1;" vertex="1" parent="1">
          <mxGeometry x="826.75" y="480" width="50" height="40" as="geometry" />
        </mxCell>
        <mxCell id="ARIzsu3oWci_cmAsu49R-8" value="&lt;span style=&quot;font-size: 14px&quot;&gt;&lt;b&gt;打包&lt;/b&gt;&lt;/span&gt;" style="rounded=0;whiteSpace=wrap;html=1;" vertex="1" parent="1">
          <mxGeometry x="910" y="480" width="50" height="40" as="geometry" />
        </mxCell>
        <mxCell id="ARIzsu3oWci_cmAsu49R-9" value="&lt;span style=&quot;font-size: 14px&quot;&gt;&lt;b&gt;部署&lt;/b&gt;&lt;/span&gt;" style="rounded=0;whiteSpace=wrap;html=1;" vertex="1" parent="1">
          <mxGeometry x="1130" y="480" width="60" height="40" as="geometry" />
        </mxCell>
        <mxCell id="ARIzsu3oWci_cmAsu49R-10" value="&lt;font style=&quot;font-size: 14px&quot;&gt;&lt;b&gt;需求开发&lt;/b&gt;&lt;/font&gt;" style="rounded=1;whiteSpace=wrap;html=1;" vertex="1" parent="1">
          <mxGeometry x="580" y="360" width="120" height="60" as="geometry" />
        </mxCell>
        <mxCell id="ARIzsu3oWci_cmAsu49R-11" value="&lt;span style=&quot;font-size: 14px&quot;&gt;&lt;b&gt;创建发布计划&lt;/b&gt;&lt;/span&gt;" style="rounded=0;whiteSpace=wrap;html=1;" vertex="1" parent="1">
          <mxGeometry x="320" y="480" width="100" height="40" as="geometry" />
        </mxCell>
        <mxCell id="ARIzsu3oWci_cmAsu49R-12" value="&lt;span style=&quot;font-size: 14px&quot;&gt;&lt;b&gt;创建需求&lt;/b&gt;&lt;/span&gt;" style="rounded=0;whiteSpace=wrap;html=1;" vertex="1" parent="1">
          <mxGeometry x="480" y="480" width="70" height="40" as="geometry" />
        </mxCell>
        <mxCell id="ARIzsu3oWci_cmAsu49R-13" value="&lt;span style=&quot;font-size: 14px&quot;&gt;&lt;b&gt;需求开发&lt;/b&gt;&lt;/span&gt;" style="rounded=0;whiteSpace=wrap;html=1;" vertex="1" parent="1">
          <mxGeometry x="600" y="480" width="70" height="40" as="geometry" />
        </mxCell>
        <mxCell id="ARIzsu3oWci_cmAsu49R-14" value="&lt;span style=&quot;font-size: 14px&quot;&gt;&lt;b&gt;生成制品&lt;/b&gt;&lt;/span&gt;" style="rounded=0;whiteSpace=wrap;html=1;" vertex="1" parent="1">
          <mxGeometry x="990" y="480" width="80" height="40" as="geometry" />
        </mxCell>
        <mxCell id="ARIzsu3oWci_cmAsu49R-15" value="&lt;font style=&quot;font-size: 14px&quot;&gt;&lt;b&gt;部署中心&lt;/b&gt;&lt;/font&gt;" style="rounded=1;whiteSpace=wrap;html=1;" vertex="1" parent="1">
          <mxGeometry x="1110" y="360" width="120" height="60" as="geometry" />
        </mxCell>
        <mxCell id="ARIzsu3oWci_cmAsu49R-17" value="" style="endArrow=none;dashed=1;html=1;strokeWidth=2;" edge="1" parent="1">
          <mxGeometry width="50" height="50" relative="1" as="geometry">
            <mxPoint x="755.5699999999999" y="890" as="sourcePoint" />
            <mxPoint x="755.5699999999999" y="320" as="targetPoint" />
          </mxGeometry>
        </mxCell>
        <mxCell id="ARIzsu3oWci_cmAsu49R-18" style="edgeStyle=orthogonalEdgeStyle;rounded=0;orthogonalLoop=1;jettySize=auto;html=1;exitX=0.5;exitY=1;exitDx=0;exitDy=0;dashed=1;strokeWidth=2;" edge="1" parent="1" source="ARIzsu3oWci_cmAsu49R-7" target="ARIzsu3oWci_cmAsu49R-7">
          <mxGeometry relative="1" as="geometry" />
        </mxCell>
        <mxCell id="ARIzsu3oWci_cmAsu49R-19" value="" style="endArrow=none;dashed=1;html=1;strokeWidth=2;" edge="1" parent="1">
          <mxGeometry width="50" height="50" relative="1" as="geometry">
            <mxPoint x="1039.9999999999998" y="890" as="sourcePoint" />
            <mxPoint x="1039.9999999999998" y="320" as="targetPoint" />
          </mxGeometry>
        </mxCell>
      </root>
    </mxGraphModel>
  </diagram>
</mxfile>
